<?xml version="1.0" standalone="no"?>
<!DOCTYPE svg PUBLIC "-//W3C//DTD SVG 20010904//EN"
 "http://www.w3.org/TR/2001/REC-SVG-20010904/DTD/svg10.dtd">
<svg version="1.0" xmlns="http://www.w3.org/2000/svg"
 width="2460.000000pt" height="2460.000000pt" viewBox="0 0 2460.000000 2460.000000"
 preserveAspectRatio="xMidYMid meet">
<metadata>
Created by potrace 1.14, written by Peter Selinger 2001-2017
</metadata>
<g transform="translate(0.000000,2460.000000) scale(0.100000,-0.100000)"
fill="#000000" stroke="none">
<path d="M11840 24589 c-1420 -52 -2832 -353 -4145 -883 -607 -246 -1278 -585
-1840 -931 -734 -451 -1477 -1027 -2053 -1590 -278 -270 -529 -530 -698 -720
-924 -1038 -1688 -2269 -2209 -3558 -745 -1845 -1028 -3836 -830 -5844 8 -87
22 -212 31 -278 8 -66 18 -138 20 -160 3 -22 19 -125 35 -230 283 -1823 978
-3562 2038 -5095 92 -133 322 -444 461 -624 339 -436 922 -1060 1375 -1471 17
-15 50 -46 75 -69 326 -301 888 -738 1356 -1054 886 -597 1905 -1098 2934
-1442 1052 -352 2132 -557 3260 -621 332 -18 1309 -14 1373 6 7 2 64 6 128 10
64 3 131 8 150 10 19 2 70 6 114 10 173 13 617 68 815 100 1745 282 3366 909
4811 1860 366 241 848 596 1099 811 446 381 601 524 969 899 1430 1454 2500
3315 3046 5299 153 556 298 1287 349 1761 3 28 12 111 20 185 9 74 18 171 21
215 4 44 8 91 10 105 2 14 7 75 10 135 4 61 9 126 10 145 22 230 25 1064 6
1400 -147 2576 -1063 4986 -2655 6985 -351 440 -620 734 -1138 1241 -574 561
-1337 1149 -2080 1602 -2066 1261 -4440 1880 -6868 1791z m7555 -9687 c-3 -3
0 -11 6 -19 6 -7 7 -13 3 -13 -5 0 -14 8 -21 18 -9 15 -8 19 3 19 8 0 12 -3 9
-5z m25 -62 c6 -11 8 -20 5 -20 -4 0 -3 -6 2 -12 4 -7 9 -22 10 -33 3 -16 1
-17 -7 -5 -6 9 -10 11 -10 3 0 -7 8 -17 19 -22 10 -6 21 -20 24 -31 4 -17 2
-20 -16 -16 -12 3 -17 3 -10 0 17 -8 4 -34 -16 -33 -10 0 -11 2 -3 6 6 2 12 9
12 14 0 6 -6 7 -12 3 -10 -6 -10 -4 0 8 9 11 10 18 2 23 -13 8 -13 52 1 60 7
5 5 13 -6 25 -9 10 -14 24 -10 31 5 7 3 10 -6 7 -8 -3 -13 -11 -11 -17 1 -7
-2 -10 -8 -6 -8 5 -7 11 1 21 16 19 26 18 39 -6z m45 -160 c-3 -5 0 -10 7 -11
11 0 11 -2 0 -6 -10 -4 -9 -9 5 -20 17 -14 17 -14 -2 -9 -18 5 -18 5 -4 -6 9
-7 14 -19 11 -27 -3 -9 0 -11 8 -6 8 5 11 4 7 -1 -3 -6 3 -36 14 -69 22 -68
22 -65 9 -65 -5 0 -10 8 -10 18 0 10 -3 22 -7 26 -4 3 -8 12 -9 19 -14 67 -18
76 -28 52 -3 -9 -2 -14 3 -10 5 3 8 -3 7 -12 -2 -9 -9 -19 -17 -21 -11 -3 -11
-1 1 7 8 6 10 11 4 11 -7 0 -11 11 -10 24 0 13 4 22 9 19 4 -2 7 3 7 12 0 9
-5 13 -10 10 -6 -4 -10 -3 -9 2 3 18 -2 34 -9 29 -4 -2 -14 0 -22 6 -12 8 -11
9 3 4 13 -4 20 0 24 14 3 11 10 20 15 20 5 0 6 -4 3 -10z m23 -157 c-4 -18 16
-64 31 -73 12 -7 13 -9 2 -10 -11 0 -10 -4 4 -13 21 -16 13 -36 -14 -34 -18 1
-24 24 -11 42 10 13 -11 33 -31 30 -10 -2 -15 6 -14 25 0 16 3 26 7 24 4 -2 9
0 13 6 7 12 16 13 13 3z m60 -164 c3 -12 2 -12 -6 0 -8 11 -10 11 -14 0 -4
-11 -8 -10 -21 3 -16 16 -15 16 10 14 15 -2 29 -9 31 -17z m-1 -32 c13 -8 14
-57 1 -57 -5 0 -6 5 -3 10 3 6 1 10 -4 10 -6 0 -11 -5 -11 -11 0 -5 -5 -7 -11
-3 -8 4 -5 11 8 18 11 6 18 17 16 23 -4 10 -8 9 -20 -2 -8 -8 -20 -15 -26 -15
-7 0 -6 4 3 10 13 9 13 11 0 20 -11 7 -9 9 11 6 13 -1 30 -5 36 -9z m20 -92
c0 -8 -4 -12 -9 -9 -5 3 -6 10 -3 15 9 13 12 11 12 -6z m10 -65 c-2 -11 -10
-26 -17 -33 -12 -10 -12 -9 -1 6 10 12 10 17 2 17 -8 0 -8 4 1 15 17 19 18 19
15 -5z m-1 -59 c0 -11 -5 -17 -13 -14 -10 4 -11 9 -2 19 15 18 15 18 15 -5z
m241 -6389 c-33 -4 -68 25 -46 39 12 7 12 15 -4 44 -5 11 10 -2 35 -30 l46
-50 -31 -3z"/>
<path d="M19422 14738 c5 -15 28 -23 28 -10 0 5 -7 13 -16 16 -10 4 -14 1 -12
-6z"/>
<path d="M19465 14480 c4 -6 11 -8 16 -5 14 9 11 15 -7 15 -8 0 -12 -5 -9 -10z"/>
<path d="M19507 14414 c6 -15 23 -19 23 -5 0 5 -7 11 -14 14 -10 4 -13 1 -9
-9z"/>
</g>
</svg>
